Coordinates
version=1
nRows=13
nColumns=40
inDegrees=yes

Units are S.I. units (second, meters, Newtons, ...)
Angles are in degrees.

endheader
time	pelvis_tilt	pelvis_list	pelvis_rotation	pelvis_tx	pelvis_ty	pelvis_tz	hip_flexion_r	hip_adduction_r	hip_rotation_r	knee_angle_r	knee_angle_r_beta	ankle_angle_r	subtalar_angle_r	mtp_angle_r	hip_flexion_l	hip_adduction_l	hip_rotation_l	knee_angle_l	knee_angle_l_beta	ankle_angle_l	subtalar_angle_l	mtp_angle_l	lumbar_extension	lumbar_bending	lumbar_rotation	arm_flex_r	arm_add_r	arm_rot_r	elbow_flex_r	pro_sup_r	wrist_flex_r	wrist_dev_r	arm_flex_l	arm_add_l	arm_rot_l	elbow_flex_l	pro_sup_l	wrist_flex_l	wrist_dev_l
     22.34728571	     -2.26191991	     -7.65054179	     -5.22344051	      0.87571296	      0.91575548	      0.53692478	      9.34356358	      8.50469958	    -10.15403218	     26.51419604	     26.51419604	     18.49380826	    -10.51318650	      1.22743243	     20.80411598	    -16.33389603	      0.56801238	     66.87985936	     66.87985936	     12.70264219	    -19.58079757	     23.11071553	    -10.85419862	      7.85374082	      0.54098121	     10.90899887	    -18.53781144	    -14.08524397	     67.36610794	     45.18097499	      0.00000000	      0.00000000	      8.12484414	     -9.95457557	     -7.49820820	     31.24897073	     46.64871880	      0.00000000	      0.00000000
     22.36707143	     -2.25840120	     -7.64932596	     -4.81371440	      0.87454424	      0.91509303	      0.53756657	      9.06239984	      8.54422911	    -10.26189223	     26.59472533	     26.59472533	     18.78210176	    -10.79874800	      1.20728238	     22.62627302	    -16.14411975	      0.92714118	     66.67944105	     66.67944105	     13.87498134	    -19.60721450	     23.20213856	    -11.09198220	      7.68447191	      0.67231402	     13.41520840	    -18.09199965	    -14.06357745	     68.70373138	     45.15014840	      0.00000000	      0.00000000	      5.98260628	     -8.96633699	     -6.95415638	     29.66275972	     46.53066995	      0.00000000	      0.00000000
     22.38685714	     -2.27540995	     -7.58224985	     -4.39390882	      0.87345463	      0.91489971	      0.53786474	      8.69783819	      8.50134567	    -10.38086026	     26.46942182	     26.46942182	     18.96800442	    -10.98162656	      1.20853190	     24.31851414	    -15.86915620	      1.12672851	     65.71155082	     65.71155082	     15.14613204	    -19.61933912	     23.39054426	    -11.29360228	      7.43596483	      0.81683602	     15.97927683	    -17.65634949	    -13.87038444	     69.93181128	     45.11745314	      0.00000000	      0.00000000	      3.89453748	     -8.03062332	     -6.34566047	     28.13743744	     46.39810165	      0.00000000	      0.00000000
     22.40664286	     -2.34774951	     -7.43109197	     -3.96278698	      0.87243929	      0.91515427	      0.53772763	      8.29275319	      8.34726201	    -10.53133515	     26.14601547	     26.14601547	     19.03976838	    -11.02570189	      1.20861049	     25.87609616	    -15.45642225	      1.22027285	     63.96601554	     63.96601554	     16.34312374	    -19.62313820	     23.51480346	    -11.42019408	      7.11827996	      1.00711288	     18.48597757	    -17.27850503	    -13.52603007	     71.09296459	     45.08247686	      0.00000000	      0.00000000	      1.83304478	     -7.18602125	     -5.69054957	     26.84115110	     46.25209266	      0.00000000	      0.00000000
     22.42642857	     -2.46918104	     -7.21849560	     -3.49662732	      0.87152919	      0.91582435	      0.53717251	      7.84355907	      8.09775312	    -10.77136415	     25.64020015	     25.64020015	     19.00308871	    -10.93479811	      1.18527567	     27.25462889	    -14.91183877	      1.28534687	     61.46318246	     61.46318246	     17.28938901	    -19.61106932	     23.42614677	    -11.46801213	      6.74015636	      1.18735297	     20.93022726	    -16.93634669	    -13.10001140	     72.34656282	     45.04202630	      0.00000000	      0.00000000	     -0.22643686	     -6.41305518	     -5.03602954	     25.85912894	     46.09920105	      0.00000000	      0.00000000
     22.44621429	     -2.66609211	     -6.94344338	     -3.00547486	      0.87077220	      0.91676619	      0.53619506	      7.38108574	      7.74513752	    -11.12878524	     24.94966321	     24.94966321	     18.63885965	    -10.76547136	      0.43682051	     28.43676443	    -14.22446737	      1.35668617	     58.24685111	     58.24685111	     17.75266847	    -19.58298539	     22.79988322	    -11.40850250	      6.32852407	      1.25302007	     23.42639580	    -16.78349242	    -11.93572761	     73.42768119	     45.10296079	      0.00000000	      0.00000000	     -3.06285923	     -6.69470663	      1.67860612	     26.87311344	     44.99387739	      0.00000000	      0.00000000
     22.46600000	     -2.83937821	     -6.61477667	     -2.48917947	      0.87021008	      0.91814062	      0.53479757	      6.79328621	      7.32791898	    -11.49057143	     24.11335795	     24.11335795	     18.46161707	    -10.43713208	      0.52745655	     29.28709044	    -13.37055850	      1.52001876	     54.40315511	     54.40315511	     17.88318994	    -19.52684870	     22.32454205	    -11.36453653	      5.86652392	      1.47956845	     25.58021884	    -16.42569239	    -11.74740847	     75.05732012	     45.05587965	      0.00000000	      0.00000000	     -4.91048605	     -6.04804634	      1.90412042	     26.28918082	     44.93622636	      0.00000000	      0.00000000
     22.48578571	     -3.11496234	     -6.28442810	     -1.96330042	      0.86981610	      0.91943287	      0.53300395	      6.25084194	      6.84264968	    -12.11511163	     23.19323722	     23.19323722	     18.17349898	     -9.73802510	      0.09813439	     29.90993117	    -12.49295389	      1.72130617	     49.97873512	     49.97873512	     16.87523794	    -19.43920215	     19.87222005	    -11.21036750	      5.43410763	      1.53478533	     27.65205735	    -16.28941550	    -10.77043881	     77.12371033	     44.98348103	      0.00000000	      0.00000000	     -6.97619976	     -5.65470145	      2.47271039	     26.57687839	     44.83579734	      0.00000000	      0.00000000
     22.50557143	     -3.38953427	     -5.87563303	     -1.46446153	      0.86964623	      0.92083528	      0.53085748	      5.65270538	      6.32690339	    -12.48052395	     22.18804865	     22.18804865	     17.92225241	     -9.40782873	      0.20476182	     30.28801442	    -11.42360009	      2.15225138	     45.34963805	     45.34963805	     16.20791652	    -19.27037896	     19.75790349	    -11.00665570	      4.91186351	      1.86534834	     29.59642747	    -16.07522301	    -10.61340102	     78.56315207	     44.94298853	      0.00000000	      0.00000000	     -8.47591993	     -5.30188192	      2.66437730	     26.23316844	     44.78494376	      0.00000000	      0.00000000
     22.52535714	     -3.56801117	     -5.60318598	     -0.98196795	      0.86986478	      0.92197892	      0.52849640	      4.81900698	      5.87515590	    -13.29081183	     21.03164156	     21.03164156	     17.54680045	     -8.33967256	     -0.64104005	     30.18117563	    -10.63938886	      2.45682376	     40.30007578	     40.30007578	     13.61195467	    -19.02310689	     15.14705747	    -10.93584711	      4.56783747	      1.89788050	     31.52453707	    -16.01966472	     -9.37878020	     81.15060042	     44.85960624	      0.00000000	      0.00000000	    -10.40615082	     -5.20393111	      3.59876244	     27.20421032	     44.63693791	      0.00000000	      0.00000000
     22.54514286	     -4.06749592	     -5.43464361	     -0.57186002	      0.87000979	      0.92225425	      0.52598866	      4.50461367	      5.62569472	    -13.57906559	     20.18116334	     20.18116334	     17.38714200	     -8.15115499	     -0.51086420	     30.60150349	     -9.96788695	      2.99632502	     36.01117334	     36.01117334	     12.69787589	    -18.09785589	     15.76187968	    -10.39367432	      4.31552020	      2.36606387	     33.48032259	    -16.05147239	     -9.36546952	     82.28577028	     44.83262250	      0.00000000	      0.00000000	    -11.44752564	     -4.96494692	      3.70793072	     26.92485436	     44.60598074	      0.00000000	      0.00000000
     22.56492857	     -3.96287620	     -5.09860728	     -0.12533428	      0.87118299	      0.92298832	      0.52302546	      3.11736034	      5.09912476	    -14.57146986	     18.74508603	     18.74508603	     17.27407874	     -6.57317353	     -1.31237207	     29.86368295	     -9.18558642	      3.39517469	     31.42041399	     31.42041399	     10.07258213	    -17.52498498	     12.15167443	    -10.60640917	      3.92146698	      2.25148083	     35.03640076	    -15.72619798	     -7.92784160	     85.42357986	     44.72794085	      0.00000000	      0.00000000	    -13.05686139	     -5.12056840	      4.47667402	     27.89815406	     44.50188971	      0.00000000	      0.00000000
     22.58471429	     -4.09736792	     -4.97561722	      0.23866815	      0.87235877	      0.92276493	      0.52015184	      2.12269834	      4.95197706	    -14.84913411	     17.52060528	     17.52060528	     17.27180014	     -6.15468181	     -1.23837935	     29.77242392	     -8.79437235	      3.59793825	     28.13967179	     28.13967179	      9.20015530	    -15.86670509	     12.42027576	    -10.43174149	      3.72942396	      2.39721451	     36.82208598	    -15.24513784	     -7.64247030	     86.94939662	     44.68530461	      0.00000000	      0.00000000	    -13.91482503	     -5.12602613	      4.66562399	     27.75260078	     44.47253413	      0.00000000	      0.00000000
